<mxfile host="Electron" modified="2023-10-27T20:43:54.054Z" agent="Mozilla/5.0 (Macintosh; Intel Mac OS X 10_15_7) AppleWebKit/537.36 (KHTML, like Gecko) draw.io/22.0.3 Chrome/114.0.5735.289 Electron/25.8.4 Safari/537.36" etag="HKOnhJN-6nBDIwaaYVBG" version="22.0.3" type="device">
  <diagram name="Page-1" id="SzYZoyOzaQq1N_LmKbJu">
    <mxGraphModel dx="954" dy="727" grid="1" gridSize="10" guides="1" tooltips="1" connect="1" arrows="1" fold="1" page="1" pageScale="1" pageWidth="850" pageHeight="1100" math="0" shadow="0">
      <root>
        <mxCell id="0" />
        <mxCell id="1" parent="0" />
        <mxCell id="m67OeTxcXMetYPrlGTOr-4" value="" style="endArrow=classic;html=1;rounded=0;" edge="1" parent="1" target="m67OeTxcXMetYPrlGTOr-7">
          <mxGeometry width="50" height="50" relative="1" as="geometry">
            <mxPoint x="200" y="520" as="sourcePoint" />
            <mxPoint x="200" y="160" as="targetPoint" />
          </mxGeometry>
        </mxCell>
        <mxCell id="m67OeTxcXMetYPrlGTOr-5" value="" style="endArrow=classic;html=1;rounded=0;" edge="1" parent="1" target="m67OeTxcXMetYPrlGTOr-6">
          <mxGeometry width="50" height="50" relative="1" as="geometry">
            <mxPoint x="200" y="520" as="sourcePoint" />
            <mxPoint x="560" y="520" as="targetPoint" />
          </mxGeometry>
        </mxCell>
        <mxCell id="m67OeTxcXMetYPrlGTOr-6" value="x" style="text;html=1;strokeColor=none;fillColor=none;align=center;verticalAlign=middle;whiteSpace=wrap;rounded=0;" vertex="1" parent="1">
          <mxGeometry x="530" y="505" width="60" height="30" as="geometry" />
        </mxCell>
        <mxCell id="m67OeTxcXMetYPrlGTOr-7" value="ct" style="text;html=1;strokeColor=none;fillColor=none;align=center;verticalAlign=middle;whiteSpace=wrap;rounded=0;" vertex="1" parent="1">
          <mxGeometry x="170" y="145" width="60" height="30" as="geometry" />
        </mxCell>
        <mxCell id="m67OeTxcXMetYPrlGTOr-8" value="" style="endArrow=none;html=1;rounded=0;" edge="1" parent="1">
          <mxGeometry width="50" height="50" relative="1" as="geometry">
            <mxPoint x="200" y="520" as="sourcePoint" />
            <mxPoint x="200" y="200" as="targetPoint" />
            <Array as="points">
              <mxPoint x="320" y="360" />
            </Array>
          </mxGeometry>
        </mxCell>
        <mxCell id="m67OeTxcXMetYPrlGTOr-11" value="Millenium Falcon" style="text;html=1;strokeColor=none;fillColor=none;align=center;verticalAlign=middle;whiteSpace=wrap;rounded=0;" vertex="1" parent="1">
          <mxGeometry x="320" y="340" width="60" height="30" as="geometry" />
        </mxCell>
        <mxCell id="m67OeTxcXMetYPrlGTOr-12" value="Rebels" style="text;html=1;strokeColor=none;fillColor=none;align=center;verticalAlign=middle;whiteSpace=wrap;rounded=0;" vertex="1" parent="1">
          <mxGeometry x="130" y="330" width="60" height="30" as="geometry" />
        </mxCell>
        <mxCell id="m67OeTxcXMetYPrlGTOr-14" value="" style="endArrow=none;dashed=1;html=1;rounded=0;strokeColor=#FF0000;" edge="1" parent="1">
          <mxGeometry width="50" height="50" relative="1" as="geometry">
            <mxPoint x="190" y="510" as="sourcePoint" />
            <mxPoint x="260" y="470" as="targetPoint" />
          </mxGeometry>
        </mxCell>
        <mxCell id="m67OeTxcXMetYPrlGTOr-15" value="" style="endArrow=none;dashed=1;html=1;rounded=0;strokeColor=#FF0000;" edge="1" parent="1">
          <mxGeometry width="50" height="50" relative="1" as="geometry">
            <mxPoint x="190" y="470" as="sourcePoint" />
            <mxPoint x="300" y="410" as="targetPoint" />
          </mxGeometry>
        </mxCell>
        <mxCell id="m67OeTxcXMetYPrlGTOr-16" value="" style="endArrow=none;dashed=1;html=1;rounded=0;strokeColor=#3333FF;" edge="1" parent="1">
          <mxGeometry width="50" height="50" relative="1" as="geometry">
            <mxPoint x="190" y="270" as="sourcePoint" />
            <mxPoint x="300" y="315" as="targetPoint" />
          </mxGeometry>
        </mxCell>
        <mxCell id="m67OeTxcXMetYPrlGTOr-17" value="" style="endArrow=none;dashed=1;html=1;rounded=0;strokeColor=#3333FF;" edge="1" parent="1">
          <mxGeometry width="50" height="50" relative="1" as="geometry">
            <mxPoint x="180" y="230" as="sourcePoint" />
            <mxPoint x="270" y="270" as="targetPoint" />
          </mxGeometry>
        </mxCell>
        <mxCell id="m67OeTxcXMetYPrlGTOr-18" value="" style="endArrow=none;dashed=1;html=1;rounded=0;strokeColor=#3333FF;" edge="1" parent="1">
          <mxGeometry width="50" height="50" relative="1" as="geometry">
            <mxPoint x="180" y="305" as="sourcePoint" />
            <mxPoint x="320" y="360" as="targetPoint" />
          </mxGeometry>
        </mxCell>
        <mxCell id="m67OeTxcXMetYPrlGTOr-19" value="" style="endArrow=none;dashed=1;html=1;rounded=0;strokeColor=#FF0000;" edge="1" parent="1">
          <mxGeometry width="50" height="50" relative="1" as="geometry">
            <mxPoint x="190" y="430" as="sourcePoint" />
            <mxPoint x="320" y="360" as="targetPoint" />
          </mxGeometry>
        </mxCell>
      </root>
    </mxGraphModel>
  </diagram>
</mxfile>
